<svg width="26" height="25" viewBox="0 0 26 25" fill="none" xmlns="http://www.w3.org/2000/svg">
<path fill-rule="evenodd" clip-rule="evenodd" d="M4.52209 2.68066C4.15531 2.68066 3.80356 2.82636 3.54421 3.08571C3.28486 3.34506 3.13916 3.69682 3.13916 4.06359V21.2733C3.13916 22.0375 3.75789 22.6563 4.52209 22.6563H21.7318C21.9135 22.6563 22.0933 22.6205 22.2611 22.551C22.4289 22.4815 22.5813 22.3796 22.7097 22.2512C22.8381 22.1228 22.94 21.9704 23.0095 21.8026C23.079 21.6348 23.1148 21.455 23.1148 21.2733V4.06359C23.1148 3.88198 23.079 3.70215 23.0095 3.53437C22.94 3.36658 22.8381 3.21413 22.7097 3.08571C22.5813 2.9573 22.4289 2.85543 22.2611 2.78593C22.0933 2.71643 21.9135 2.68066 21.7318 2.68066H4.52209ZM14.9196 8.57091C14.9195 8.41905 14.8744 8.27064 14.79 8.14442C14.7055 8.0182 14.5856 7.91983 14.4453 7.86174C14.305 7.80364 14.1506 7.78843 14.0017 7.81802C13.8527 7.84761 13.7159 7.92067 13.6084 8.02798L10.5353 11.1012C10.4598 11.1715 10.3992 11.2563 10.3572 11.3506C10.3152 11.4448 10.2927 11.5465 10.2908 11.6497C10.289 11.7528 10.308 11.8553 10.3466 11.951C10.3853 12.0466 10.4428 12.1336 10.5158 12.2065C10.5887 12.2795 10.6756 12.337 10.7713 12.3756C10.8669 12.4143 10.9694 12.4332 11.0726 12.4314C11.1757 12.4296 11.2775 12.407 11.3717 12.365C11.466 12.323 11.5508 12.2625 11.6211 12.187L13.3831 10.4251V16.766C13.3831 16.9698 13.464 17.1652 13.6081 17.3093C13.7522 17.4534 13.9476 17.5343 14.1514 17.5343C14.3551 17.5343 14.5505 17.4534 14.6946 17.3093C14.8387 17.1652 14.9196 16.9698 14.9196 16.766V8.57091Z" fill="#B948DB"/>
</svg>
