<svg width="26" height="26" viewBox="0 0 26 26" fill="none" xmlns="http://www.w3.org/2000/svg">
<path fill-rule="evenodd" clip-rule="evenodd" d="M4.34142 2.92188C3.97465 2.92188 3.62289 3.06758 3.36355 3.32692C3.1042 3.58627 2.9585 3.93803 2.9585 4.3048V21.5146C2.9585 22.2788 3.57723 22.8975 4.34142 22.8975H21.5512C21.7328 22.8975 21.9126 22.8617 22.0804 22.7922C22.2482 22.7227 22.4006 22.6208 22.5291 22.4924C22.6575 22.364 22.7593 22.2116 22.8288 22.0438C22.8983 21.876 22.9341 21.6962 22.9341 21.5146V4.3048C22.9341 4.12319 22.8983 3.94336 22.8288 3.77558C22.7593 3.60779 22.6575 3.45534 22.5291 3.32692C22.4006 3.19851 22.2482 3.09664 22.0804 3.02714C21.9126 2.95765 21.7328 2.92188 21.5512 2.92188H4.34142ZM11.1536 11.2707C11.1536 10.3077 11.8963 9.58041 12.7496 9.58041C13.6019 9.58041 14.3446 10.3077 14.3446 11.2707C14.3446 11.5995 14.2565 11.9037 14.1059 12.1598C13.6326 12.9681 12.6164 14.014 11.6535 14.9011C11.0982 15.4109 10.5273 15.9035 9.94176 16.3783L9.91615 16.3988L9.91001 16.4039L9.90796 16.4049C9.78286 16.504 9.6917 16.6395 9.64715 16.7927C9.60259 16.9459 9.60685 17.1092 9.65934 17.2599C9.71182 17.4106 9.80992 17.5412 9.94002 17.6336C10.0701 17.726 10.2258 17.7756 10.3853 17.7755H15.5073C15.711 17.7755 15.9065 17.6946 16.0505 17.5505C16.1946 17.4064 16.2756 17.211 16.2756 17.0072C16.2756 16.8035 16.1946 16.6081 16.0505 16.464C15.9065 16.3199 15.711 16.2389 15.5073 16.2389H12.4669L12.6943 16.032C13.6531 15.148 14.8291 13.9648 15.4325 12.9373C15.7283 12.4318 15.8832 11.8563 15.8812 11.2707C15.8812 9.5169 14.5075 8.04383 12.7496 8.04383C10.9918 8.04383 9.61703 9.5169 9.61703 11.2707V11.6804C9.61703 11.8842 9.69798 12.0796 9.84206 12.2237C9.98614 12.3678 10.1816 12.4487 10.3853 12.4487C10.5891 12.4487 10.7845 12.3678 10.9286 12.2237C11.0727 12.0796 11.1536 11.8842 11.1536 11.6804V11.2707Z" fill="#B948DB"/>
</svg>
