<svg width="25" height="25" viewBox="0 0 25 25" fill="none" xmlns="http://www.w3.org/2000/svg">
<path fill-rule="evenodd" clip-rule="evenodd" d="M2.58838 3.93286C2.58838 3.19018 3.18969 2.58887 3.93237 2.58887H20.6575C21.4002 2.58887 22.0015 3.19018 22.0015 3.93286V20.658C22.0015 20.8345 21.9668 21.0093 21.8992 21.1724C21.8317 21.3354 21.7327 21.4836 21.6079 21.6084C21.4831 21.7332 21.3349 21.8322 21.1719 21.8997C21.0088 21.9673 20.834 22.002 20.6575 22.002H3.93237C3.75587 22.002 3.5811 21.9673 3.41804 21.8997C3.25498 21.8322 3.10682 21.7332 2.98202 21.6084C2.85722 21.4836 2.75823 21.3354 2.69068 21.1724C2.62314 21.0093 2.58838 20.8345 2.58838 20.658V3.93286ZM12.295 9.05992C13.4209 9.05992 14.0372 9.76377 14.0372 10.3044C14.0372 10.7225 13.9207 11.0231 13.7504 11.2113C13.5912 11.3875 13.3104 11.5488 12.7927 11.5488C12.5947 11.5488 12.4048 11.6275 12.2648 11.7675C12.1247 11.9075 12.0461 12.0974 12.0461 12.2954C12.0461 12.4935 12.1247 12.6834 12.2648 12.8234C12.4048 12.9634 12.5947 13.0421 12.7927 13.0421C13.3104 13.0421 13.5912 13.2034 13.7504 13.3796C13.9197 13.5688 14.0372 13.8694 14.0372 14.2865C14.0372 14.8271 13.4209 15.531 12.295 15.531C11.169 15.531 10.5528 14.8271 10.5528 14.2865C10.5528 14.0885 10.4741 13.8986 10.3341 13.7586C10.194 13.6185 10.0041 13.5399 9.80609 13.5399C9.60807 13.5399 9.41815 13.6185 9.27812 13.7586C9.1381 13.8986 9.05943 14.0885 9.05943 14.2865C9.05943 15.9451 10.6722 17.0243 12.295 17.0243C13.9177 17.0243 15.5305 15.9451 15.5305 14.2865C15.5305 13.6046 15.3383 12.9097 14.8575 12.3781L14.7788 12.2954L14.8575 12.2128C15.3383 11.6812 15.5305 10.9863 15.5305 10.3044C15.5305 8.64577 13.9177 7.5666 12.295 7.5666C10.6722 7.5666 9.05943 8.64577 9.05943 10.3044C9.05943 10.5024 9.1381 10.6923 9.27812 10.8323C9.41815 10.9723 9.60807 11.051 9.80609 11.051C10.0041 11.051 10.194 10.9723 10.3341 10.8323C10.4741 10.6923 10.5528 10.5024 10.5528 10.3044C10.5528 9.76377 11.169 9.05992 12.295 9.05992Z" fill="#B948DB"/>
</svg>
