<svg width="26" height="25" viewBox="0 0 26 25" fill="none" xmlns="http://www.w3.org/2000/svg">
<path fill-rule="evenodd" clip-rule="evenodd" d="M4.34142 2.5C3.97465 2.5 3.62289 2.6457 3.36355 2.90505C3.1042 3.1644 2.9585 3.51615 2.9585 3.88293V21.0927C2.9585 21.8569 3.57723 22.4756 4.34142 22.4756H21.5512C21.7328 22.4756 21.9126 22.4398 22.0804 22.3703C22.2482 22.3008 22.4006 22.199 22.5291 22.0706C22.6575 21.9421 22.7593 21.7897 22.8288 21.6219C22.8983 21.4541 22.9341 21.2743 22.9341 21.0927V3.88293C22.9341 3.70132 22.8983 3.52149 22.8288 3.3537C22.7593 3.18592 22.6575 3.03347 22.5291 2.90505C22.4006 2.77663 22.2482 2.67477 22.0804 2.60527C21.9126 2.53577 21.7328 2.5 21.5512 2.5H4.34142ZM15.2512 8.39024C15.2511 8.23187 15.202 8.0774 15.1108 7.94797C15.0195 7.81855 14.8904 7.72049 14.7413 7.66722C14.5921 7.61396 14.4302 7.60808 14.2776 7.65041C14.125 7.69273 13.9891 7.78118 13.8887 7.90366L9.27898 13.5378C9.18689 13.6503 9.12862 13.7867 9.11095 13.931C9.09328 14.0754 9.11693 14.2217 9.17916 14.3532C9.24138 14.4846 9.33963 14.5957 9.46247 14.6735C9.58532 14.7513 9.72772 14.7926 9.87313 14.7927H13.7146V16.5854C13.7146 16.7891 13.7955 16.9845 13.9396 17.1286C14.0837 17.2727 14.2791 17.3537 14.4829 17.3537C14.6867 17.3537 14.8821 17.2727 15.0262 17.1286C15.1702 16.9845 15.2512 16.7891 15.2512 16.5854V14.7927H16.0195C16.2232 14.7927 16.4187 14.7117 16.5627 14.5677C16.7068 14.4236 16.7878 14.2282 16.7878 14.0244C16.7878 13.8206 16.7068 13.6252 16.5627 13.4811C16.4187 13.337 16.2232 13.2561 16.0195 13.2561H15.2512V8.39024ZM13.7146 10.5425V13.2561H11.4947L13.7146 10.5425Z" fill="#B948DB"/>
</svg>
