<svg width="124" height="124" viewBox="0 0 124 124" fill="none" xmlns="http://www.w3.org/2000/svg">
<g id="famicons:flower">
<path id="Vector" d="M62 73.625C68.4203 73.625 73.625 68.4203 73.625 62C73.625 55.5797 68.4203 50.375 62 50.375C55.5797 50.375 50.375 55.5797 50.375 62C50.375 68.4203 55.5797 73.625 62 73.625Z" fill="#F25A2C"/>
<path id="Vector_2" d="M115.264 73.6032C117.533 71.3713 119.1 68.5258 119.774 65.4158C120.449 62.3058 120.2 59.0666 119.06 56.0957C117.92 53.1248 115.937 50.5513 113.355 48.691C110.773 46.8307 107.705 45.7645 104.526 45.6233C104.286 45.6128 104.054 45.5341 103.858 45.3964C103.661 45.2587 103.508 45.0677 103.416 44.8459C103.326 44.6235 103.3 44.3797 103.343 44.1433C103.386 43.9069 103.495 43.6877 103.659 43.5114C105.787 41.1583 107.188 38.2391 107.693 35.1066C108.199 31.9742 107.786 28.7625 106.505 25.8596C105.224 22.9568 103.13 20.487 100.475 18.7487C97.8207 17.0105 94.7197 16.0781 91.5468 16.0643H91.4863C87.4146 16.0636 83.4909 17.5908 80.491 20.3438C80.3145 20.5074 80.0948 20.6172 79.8579 20.6601C79.621 20.7031 79.3768 20.6773 79.1541 20.5859C78.9324 20.494 78.7413 20.3409 78.6033 20.1445C78.4652 19.9481 78.3858 19.7165 78.3743 19.4767C78.1892 15.2579 76.3831 11.2732 73.3324 8.35336C70.2816 5.43348 66.2216 3.80368 61.9988 3.80368C57.7759 3.80368 53.7159 5.43348 50.6652 8.35336C47.6144 11.2732 45.8083 15.2579 45.6232 19.4767C45.6128 19.7165 45.5341 19.9482 45.3964 20.1448C45.2586 20.3413 45.0676 20.4943 44.8458 20.5859C44.6231 20.6773 44.3789 20.7031 44.142 20.6601C43.9051 20.6172 43.6855 20.5074 43.5089 20.3438C40.5077 17.5861 36.5798 16.057 32.504 16.0595H32.4531C29.2836 16.0816 26.1881 17.0192 23.5389 18.7592C20.8897 20.4993 18.7997 22.9678 17.5204 25.8677C16.2411 28.7676 15.827 31.9754 16.3279 35.1051C16.8287 38.2348 18.2233 41.1532 20.3437 43.509C20.5069 43.6853 20.6164 43.9045 20.6593 44.1409C20.7022 44.3773 20.6768 44.621 20.5859 44.8434C20.4943 45.0652 20.3412 45.2563 20.1447 45.394C19.9482 45.5317 19.7164 45.6104 19.4767 45.6209C15.2837 45.8432 11.3358 47.6654 8.44649 50.7121C5.55715 53.7587 3.94653 57.7975 3.94653 61.9964C3.94653 66.1952 5.55715 70.2341 8.44649 73.2807C11.3358 76.3273 15.2837 78.1495 19.4767 78.3719C19.7167 78.3836 19.9485 78.4634 20.1449 78.6019C20.3413 78.7404 20.4943 78.9319 20.5859 79.1541C20.677 79.3769 20.7026 79.6211 20.6597 79.8579C20.6168 80.0947 20.5071 80.3143 20.3437 80.491C18.2084 82.8372 16.8015 85.7536 16.2942 88.8852C15.7869 92.0167 16.2012 95.2282 17.4865 98.1285C18.7719 101.029 20.8729 103.493 23.5337 105.22C26.1944 106.948 29.3001 107.864 32.4725 107.858H32.533C36.5866 107.869 40.4992 106.372 43.5089 103.656C43.6852 103.493 43.9045 103.384 44.1409 103.341C44.3773 103.298 44.621 103.323 44.8434 103.414C45.0652 103.506 45.2562 103.659 45.3939 103.855C45.5317 104.052 45.6104 104.284 45.6208 104.523C45.8432 108.716 47.6654 112.664 50.712 115.553C53.7586 118.443 57.7975 120.053 61.9963 120.053C66.1952 120.053 70.234 118.443 73.2806 115.553C76.3273 112.664 78.1495 108.716 78.3718 104.523C78.3834 104.283 78.4628 104.052 78.6008 103.856C78.7389 103.659 78.9299 103.506 79.1517 103.414C79.3741 103.323 79.6178 103.298 79.8542 103.341C80.0906 103.384 80.3098 103.493 80.4861 103.656C83.4915 106.376 87.4015 107.88 91.4548 107.875H91.5154C94.6905 107.888 97.8005 106.975 100.465 105.249C103.13 103.522 105.234 101.057 106.521 98.1542C107.808 95.2514 108.221 92.0366 107.71 88.9028C107.199 85.769 105.786 82.8519 103.644 80.508C103.481 80.3313 103.371 80.1116 103.328 79.8748C103.285 79.638 103.311 79.3939 103.402 79.1711C103.494 78.9494 103.647 78.7583 103.843 78.6203C104.04 78.4822 104.271 78.4028 104.511 78.3913C108.567 78.1904 112.401 76.483 115.264 73.6032ZM62 81.375C58.168 81.375 54.422 80.2387 51.2358 78.1097C48.0496 75.9808 45.5662 72.9548 44.0998 69.4145C42.6334 65.8742 42.2497 61.9785 42.9972 58.2201C43.7448 54.4618 45.5901 51.0095 48.2998 48.2998C51.0094 45.5902 54.4617 43.7449 58.2201 42.9973C61.9785 42.2497 65.8741 42.6334 69.4145 44.0998C72.9548 45.5663 75.9807 48.0496 78.1097 51.2358C80.2386 54.422 81.375 58.168 81.375 62C81.3692 67.1368 79.3261 72.0616 75.6938 75.6938C72.0615 79.3261 67.1368 81.3692 62 81.375Z" fill="#F25A2C"/>
</g>
</svg>
