<svg width="89" height="89" viewBox="0 0 89 89" fill="none" xmlns="http://www.w3.org/2000/svg">
<g id="famicons:musical-notes">
<path id="Vector" d="M73.3276 6.49596C72.7772 6.07193 72.1361 5.78125 71.4545 5.64673C70.7728 5.51222 70.0693 5.53753 69.3991 5.72069L34.7517 15.0344C33.5495 15.3573 32.4887 16.0705 31.736 17.062C30.9834 18.0535 30.5815 19.267 30.5937 20.5117V59.7969C30.5937 60.9685 29.8358 61.9802 28.6625 62.3748L28.6416 62.3834L19.6026 65.5124C16.1451 66.6683 13.9062 69.8789 13.9062 73.6875C13.8935 75.2366 14.2538 76.7659 14.9567 78.1465C15.6595 79.527 16.6842 80.7181 17.9442 81.6193C19.5669 82.798 21.5203 83.4344 23.5259 83.4375C24.5751 83.4357 25.6171 83.2637 26.6113 82.9282L26.6774 82.9056L30.4738 81.5254C32.1206 80.9756 33.554 79.9242 34.5731 78.5186C35.5922 77.113 36.1458 75.4236 36.1562 73.6875V36.8359C36.1562 35.5687 36.9854 34.5397 38.27 34.2163L38.3065 34.2059L68.6621 26.0986C68.7646 26.0721 68.8719 26.0694 68.9757 26.0907C69.0794 26.112 69.1769 26.1567 69.2608 26.2214C69.3446 26.2861 69.4126 26.3692 69.4595 26.4642C69.5063 26.5592 69.5309 26.6636 69.5312 26.7695V51.441C69.5312 52.6143 68.7924 53.593 67.6 53.9928L67.5565 54.0084L58.7104 57.1564C56.9901 57.7223 55.4944 58.8207 54.4397 60.2929C53.3851 61.7651 52.8261 63.5346 52.8437 65.3455C52.8282 66.8992 53.187 68.4338 53.8899 69.8196C54.5927 71.2053 55.6189 72.4015 56.8817 73.3068C58.1181 74.2006 59.5515 74.7833 61.0608 75.0057C62.5701 75.2281 64.1107 75.0836 65.5523 74.5844L65.6149 74.5636L69.4113 73.1816C71.0579 72.6322 72.4913 71.5811 73.5104 70.1758C74.5295 68.7704 75.0831 67.0814 75.0937 65.3455V10.082C75.0975 9.3883 74.9399 8.70318 74.6334 8.08081C74.3269 7.45844 73.8799 6.91587 73.3276 6.49596Z" fill="#1E4BAE"/>
</g>
</svg>
