<svg width="71" height="71" viewBox="0 0 71 71" fill="none" xmlns="http://www.w3.org/2000/svg">
<g id="famicons:accessibility">
<path id="Vector" d="M35.5 15.5313C33.9641 15.5313 32.4627 15.0758 31.1857 14.2225C29.9086 13.3692 28.9133 12.1564 28.3255 10.7374C27.7377 9.31842 27.584 7.75701 27.8836 6.25063C28.1832 4.74425 28.9228 3.36054 30.0089 2.2745C31.0949 1.18846 32.4786 0.448856 33.985 0.149218C35.4914 -0.150421 37.0528 0.00336478 38.4718 0.591127C39.8908 1.17889 41.1036 2.17423 41.9569 3.45128C42.8102 4.72833 43.2656 6.22973 43.2656 7.76563C43.2634 9.82452 42.4446 11.7985 40.9887 13.2543C39.5328 14.7102 37.5589 15.5291 35.5 15.5313Z" fill="#B948DB"/>
<path id="Vector_2" d="M59.9062 15.6422L59.8438 15.6588L59.7856 15.6768C59.6469 15.7157 59.5083 15.7573 59.3696 15.8003C56.7889 16.5574 44.2641 20.088 35.4404 20.088C27.2407 20.088 15.8488 17.0372 12.2045 16.0013C11.8418 15.8612 11.4714 15.7417 11.0951 15.6436C8.46037 14.9502 6.65764 17.6266 6.65764 20.0727C6.65764 22.4953 8.83479 23.6491 11.0327 24.477V24.5158L24.2371 28.6399C25.5863 29.1571 25.9469 29.6855 26.123 30.1431C26.6957 31.6116 26.2381 34.5196 26.0759 35.5347L25.2716 41.7749L20.8077 66.2075C20.7939 66.2741 20.7814 66.342 20.7703 66.4113L20.7384 66.5874C20.4167 68.827 22.0613 71 25.1759 71C27.8939 71 29.0934 69.1238 29.6134 66.5708C30.1334 64.0179 33.4962 44.7203 35.4376 44.7203C37.379 44.7203 41.3783 66.5708 41.3783 66.5708C41.8983 69.1238 43.0978 71 45.8158 71C48.9387 71 50.5833 68.8173 50.2533 66.5708C50.225 66.3819 50.1898 66.1941 50.1479 66.0078L45.623 41.7777L44.8201 35.5374C44.2391 31.9028 44.7064 30.7019 44.8645 30.4204C44.8688 30.4138 44.8725 30.4069 44.8756 30.3996C45.0254 30.1223 45.7076 29.501 47.2996 28.9034L59.6802 24.5754C59.7563 24.5551 59.8312 24.5311 59.9049 24.5033C62.1236 23.6713 64.3424 22.5203 64.3424 20.0755C64.3424 17.6307 62.541 14.9502 59.9062 15.6422Z" fill="#B948DB"/>
</g>
</svg>
