<svg width="94" height="94" viewBox="0 0 94 94" fill="none" xmlns="http://www.w3.org/2000/svg">
<g id="famicons:happy">
<path id="Vector" d="M76.0794 17.9206C72.2675 14.0709 67.7325 11.0124 62.7349 8.92066C57.7373 6.82895 52.3757 5.7453 46.9581 5.73197C41.5405 5.71863 36.1736 6.77588 31.1658 8.84296C26.158 10.91 21.608 13.9462 17.7771 17.7771C13.9463 21.6079 10.9101 26.158 8.84299 31.1658C6.77591 36.1736 5.71866 41.5404 5.732 46.9581C5.74533 52.3757 6.82898 57.7373 8.92069 62.7349C11.0124 67.7324 14.0709 72.2675 17.9206 76.0794C21.7326 79.9291 26.2676 82.9876 31.2651 85.0793C36.2627 87.171 41.6243 88.2547 47.0419 88.268C52.4596 88.2813 57.8265 87.2241 62.8343 85.157C67.8421 83.0899 72.3921 80.0538 76.2229 76.2229C80.0538 72.392 83.09 67.842 85.157 62.8342C87.2241 57.8264 88.2814 52.4595 88.268 47.0419C88.2547 41.6243 87.1711 36.2627 85.0794 31.2651C82.9876 26.2675 79.9291 21.7325 76.0794 17.9206ZM33.7813 38.1875C34.6527 38.1875 35.5046 38.4459 36.2292 38.9301C36.9539 39.4142 37.5186 40.1024 37.8521 40.9075C38.1856 41.7127 38.2729 42.5986 38.1029 43.4534C37.9328 44.3081 37.5132 45.0932 36.897 45.7094C36.2807 46.3256 35.4956 46.7453 34.6409 46.9153C33.7862 47.0853 32.9002 46.9981 32.0951 46.6646C31.2899 46.3311 30.6018 45.7663 30.1176 45.0417C29.6334 44.3171 29.375 43.4652 29.375 42.5937C29.3736 42.0147 29.4865 41.4411 29.7075 40.9058C29.9284 40.3706 30.2529 39.8843 30.6623 39.4748C31.0718 39.0654 31.5581 38.7409 32.0934 38.5199C32.6286 38.299 33.2022 38.186 33.7813 38.1875ZM64.5644 57.6796C62.3613 65.0785 55.348 70.5 47.0092 70.5C38.6704 70.5 31.6571 65.0785 29.4356 57.6796C29.3735 57.4593 29.3637 57.2275 29.4071 57.0027C29.4505 56.7779 29.5458 56.5664 29.6854 56.385C29.8251 56.2036 30.0052 56.0574 30.2114 55.958C30.4177 55.8586 30.6442 55.8088 30.8731 55.8125H63.1287C63.3575 55.8091 63.5839 55.8591 63.7898 55.9586C63.9958 56.0582 64.1757 56.2044 64.3151 56.3858C64.4546 56.5671 64.5497 56.7786 64.593 57.0032C64.6363 57.2278 64.6265 57.4595 64.5644 57.6796ZM60.2188 47C59.3473 47 58.4954 46.7416 57.7708 46.2574C57.0462 45.7732 56.4814 45.0851 56.1479 44.2799C55.8144 43.4748 55.7272 42.5888 55.8972 41.7341C56.0672 40.8794 56.4869 40.0943 57.1031 39.478C57.7193 38.8618 58.5044 38.4422 59.3592 38.2722C60.2139 38.1021 61.0998 38.1894 61.905 38.5229C62.7101 38.8564 63.3983 39.4212 63.8824 40.1458C64.3666 40.8704 64.625 41.7223 64.625 42.5937C64.6265 43.1728 64.5135 43.7464 64.2926 44.2817C64.0717 44.8169 63.7471 45.3032 63.3377 45.7127C62.9283 46.1221 62.4419 46.4466 61.9067 46.6675C61.3714 46.8885 60.7978 47.0014 60.2188 47Z" fill="#0F6743"/>
</g>
</svg>
